<?xml version="1.0" standalone="no"?>
<!DOCTYPE svg PUBLIC "-//W3C//DTD SVG 20010904//EN"
 "http://www.w3.org/TR/2001/REC-SVG-20010904/DTD/svg10.dtd">
<svg version="1.0" xmlns="http://www.w3.org/2000/svg"
 width="1054.000000pt" height="1024.000000pt" viewBox="0 0 1054.000000 1024.000000"
 preserveAspectRatio="xMidYMid meet">

<g transform="translate(0.000000,1024.000000) scale(0.100000,-0.100000)"
fill="#000000" stroke="none">
<path d="M6275 10225 c-315 -45 -611 -138 -905 -285 -342 -171 -606 -364 -901
-659 -315 -317 -565 -664 -769 -1070 -419 -838 -564 -1792 -404 -2661 66 -355
168 -656 329 -968 41 -80 75 -147 75 -148 0 -2 -6 -4 -14 -4 -34 0 -199 -55
-283 -95 -178 -84 -319 -192 -430 -329 -98 -122 -212 -299 -275 -427 -100
-204 -141 -344 -208 -708 -64 -354 -109 -510 -198 -686 -58 -117 -112 -195
-186 -274 -140 -146 -298 -224 -544 -269 -82 -14 -157 -17 -492 -16 -217 1
-478 7 -580 13 -434 26 -435 26 -458 3 -30 -30 -38 -70 -21 -101 14 -24 141
-144 879 -826 173 -159 403 -372 511 -473 266 -246 264 -245 314 -237 77 12
547 125 727 175 381 105 553 175 733 296 163 109 262 191 401 329 180 179 291
330 394 536 85 168 127 304 175 559 100 538 248 967 429 1245 72 110 134 170
212 207 l65 30 105 -41 c134 -53 278 -95 431 -126 109 -22 138 -33 292 -109
198 -100 346 -167 451 -206 41 -15 128 -49 194 -75 138 -54 335 -106 496 -132
163 -25 547 -25 715 1 893 137 1719 705 2288 1572 392 598 629 1267 702 1986
17 169 20 591 4 758 -59 655 -280 1261 -628 1724 -431 572 -1035 922 -1720
996 -104 11 -104 11 -185 69 -295 208 -621 346 -980 412 -147 28 -587 36 -741
14z m518 -196 c265 -23 538 -99 775 -214 71 -34 132 -67 135 -72 4 -6 -23 -13
-64 -17 -100 -9 -297 -49 -423 -85 l-107 -31 -82 24 c-321 97 -688 97 -1022 1
-722 -207 -1369 -802 -1761 -1620 -191 -398 -310 -807 -371 -1270 -22 -176
-26 -690 -5 -855 78 -618 278 -1127 594 -1515 l65 -80 -101 50 c-123 62 -235
93 -389 108 l-117 12 -23 35 c-36 52 -126 222 -176 329 -357 773 -392 1787
-92 2699 165 503 416 959 755 1372 99 121 363 381 485 478 603 480 1278 708
1924 651z m1439 -515 c294 -38 589 -142 849 -300 635 -385 1075 -1086 1218
-1939 40 -237 46 -325 46 -625 -1 -220 -5 -332 -18 -440 -99 -801 -401 -1527
-891 -2140 -125 -155 -385 -417 -531 -534 -358 -286 -784 -501 -1170 -591
-267 -63 -586 -82 -833 -51 -774 99 -1421 576 -1796 1324 -164 326 -264 662
-321 1072 -22 156 -31 606 -16 781 75 866 405 1673 952 2332 90 108 309 326
434 432 436 369 957 610 1470 679 142 20 456 20 607 0z m-1484 -39 c4 -4 2 -9
-3 -11 -36 -14 -279 -153 -375 -215 l-115 -75 -258 64 c-142 36 -255 68 -250
73 18 18 226 93 333 121 180 45 293 58 488 54 95 -2 176 -7 180 -11z m-976
-387 l280 -72 -74 -65 c-90 -80 -265 -254 -340 -339 l-55 -62 -274 74 c-151
41 -294 79 -318 86 l-44 12 64 65 c140 142 429 373 466 373 9 0 141 -32 295
-72z m-649 -622 c169 -46 310 -86 314 -89 3 -3 -8 -23 -24 -44 -45 -58 -150
-215 -224 -338 -37 -60 -71 -109 -76 -109 -4 1 -148 39 -320 84 l-312 83 21
40 c61 120 287 457 306 457 4 0 146 -38 315 -84z m-413 -681 c162 -43 299 -81
303 -85 5 -4 -16 -61 -46 -127 -60 -131 -138 -324 -158 -390 -8 -28 -18 -43
-28 -43 -9 1 -146 41 -306 89 -272 84 -290 91 -287 111 6 40 92 282 145 408
38 90 56 122 67 119 8 -2 148 -39 310 -82z m-280 -751 c157 -48 288 -89 292
-93 3 -3 -9 -66 -28 -138 -18 -73 -44 -188 -56 -256 l-23 -124 -280 73 c-154
40 -281 74 -282 74 -24 2 61 550 85 550 3 0 135 -39 292 -86z m-105 -743 c250
-66 260 -69 258 -92 -13 -213 -24 -423 -26 -495 l-2 -91 -230 64 c-126 36
-235 71 -241 79 -15 18 -33 177 -44 379 -9 171 -6 225 14 225 6 -1 128 -32
271 -69z m50 -849 l200 -58 8 -59 c5 -33 19 -123 31 -200 13 -77 23 -141 22
-142 -1 0 -82 18 -181 41 l-180 43 -36 89 c-32 80 -87 252 -105 327 -8 33 -36
38 241 -41z m132 -637 c201 -48 178 -33 208 -133 32 -107 85 -254 125 -351
l30 -73 -58 50 c-114 100 -227 230 -319 369 -74 110 -106 163 -100 163 3 0 54
-11 114 -25z m-338 -555 c98 -24 207 -75 342 -158 52 -33 203 -117 335 -186
131 -69 254 -139 271 -156 18 -16 37 -30 42 -30 6 0 36 -33 67 -72 32 -40 85
-104 118 -142 34 -39 54 -67 46 -64 -238 100 -328 121 -474 116 -83 -4 -125
-10 -168 -27 -89 -35 -174 -97 -240 -176 l-61 -73 -171 122 c-94 67 -348 247
-565 401 -352 249 -391 280 -375 292 80 58 290 142 409 162 33 6 71 13 85 15
57 10 258 -4 339 -24z m-414 -696 c314 -223 577 -409 585 -414 11 -7 5 -27
-37 -117 -133 -281 -244 -632 -314 -993 -12 -63 -23 -117 -25 -118 -2 -3
-1238 910 -1292 953 -5 4 28 174 55 280 50 203 127 376 251 565 81 123 180
250 196 250 6 0 268 -183 581 -406z m-467 -1367 c436 -324 632 -475 632 -487
0 -28 -55 -174 -104 -275 -89 -182 -234 -376 -405 -538 -114 -107 -220 -189
-235 -180 -25 15 -1096 935 -1096 941 0 4 18 20 39 35 62 46 165 156 225 240
110 155 213 403 267 644 14 64 27 100 33 96 6 -4 296 -218 644 -476z m-800
-1127 l543 -464 -23 -18 c-75 -57 -288 -137 -593 -223 -237 -66 -662 -167
-686 -163 -16 3 -1389 1264 -1389 1276 0 3 51 2 112 -2 62 -4 259 -11 437 -16
494 -13 723 6 931 77 79 27 86 28 105 12 11 -8 264 -224 563 -479z"/>
<path d="M7855 9224 c-16 -2 -66 -9 -110 -15 -104 -13 -266 -51 -385 -91 -162
-53 -460 -189 -460 -210 0 -16 450 -1991 455 -1996 3 -3 40 11 83 32 82 38
189 66 257 66 110 0 249 -58 342 -144 31 -28 58 -45 62 -40 5 5 121 167 258
359 137 193 422 593 633 889 l384 540 -94 89 c-294 277 -615 442 -979 504 -84
14 -386 26 -446 17z m355 -178 c257 -35 488 -122 708 -269 101 -68 252 -191
252 -206 0 -7 -1054 -1495 -1077 -1521 -2 -2 -12 1 -21 8 -134 94 -287 134
-433 112 -44 -6 -103 -19 -133 -30 l-54 -18 -5 26 c-3 15 -89 395 -191 845
-102 449 -186 822 -186 828 0 30 360 163 536 198 210 43 416 52 604 27z"/>
<path d="M7750 8840 c-164 -18 -462 -91 -494 -120 -7 -7 1 -34 43 -142 l10
-27 71 24 c109 37 282 73 415 85 319 31 666 -49 930 -215 l84 -53 57 69 c31
38 55 71 53 73 -2 2 -35 24 -73 50 -159 105 -397 198 -606 236 -134 24 -366
33 -490 20z"/>
<path d="M7668 8310 c-94 -12 -241 -41 -251 -50 -4 -4 2 -31 14 -61 11 -30 25
-64 29 -75 l9 -21 88 19 c129 28 380 35 503 14 127 -22 293 -79 384 -131 l74
-42 62 62 62 62 -29 20 c-99 70 -306 151 -470 183 -121 24 -363 34 -475 20z"/>
<path d="M7532 7823 c-24 -2 -42 -7 -40 -11 2 -4 14 -38 28 -75 l25 -68 55 7
c91 13 270 7 363 -10 95 -18 210 -56 269 -88 l36 -21 77 49 76 48 -23 18 c-67
51 -294 125 -452 147 -72 10 -317 12 -414 4z"/>
<path d="M5236 6573 c-16 -52 -58 -289 -78 -433 -30 -225 -33 -686 -5 -885 77
-536 250 -956 544 -1320 82 -101 189 -213 197 -204 2 2 290 406 640 898 l637
893 -49 52 c-60 63 -93 115 -126 197 -58 141 -72 331 -37 507 13 66 15 95 7
97 -11 4 -321 42 -1206 150 -250 30 -469 57 -487 60 -24 4 -33 2 -37 -12z
m591 -229 c252 -30 574 -70 717 -87 l259 -32 2 -175 c1 -146 5 -188 24 -255
26 -92 76 -205 119 -267 l30 -43 -539 -755 c-296 -415 -544 -755 -551 -755
-18 0 -121 126 -211 260 -155 232 -274 515 -340 815 -47 212 -59 314 -64 580
-5 264 5 418 44 663 14 90 20 107 35 107 10 0 224 -25 475 -56z"/>
<path d="M5491 6123 c-63 -327 -23 -765 104 -1138 80 -239 248 -574 280 -561
20 7 134 90 135 97 0 4 -16 33 -36 65 -19 33 -60 109 -89 169 -214 444 -286
887 -219 1351 l6 40 -79 17 c-43 9 -81 17 -84 17 -4 0 -11 -26 -18 -57z"/>
<path d="M6313 5944 c8 -205 55 -387 150 -582 22 -45 43 -85 47 -87 7 -4 77
80 103 123 6 9 -5 42 -31 95 -73 151 -109 290 -127 493 l-7 71 -53 7 c-29 3
-61 9 -71 13 -16 6 -16 -4 -11 -133z"/>
<path d="M5905 6050 c-13 -21 -6 -317 10 -422 20 -136 72 -325 124 -452 39
-95 150 -306 161 -306 3 0 34 26 69 58 l65 59 -27 46 c-166 283 -262 647 -243
918 l6 86 -70 12 c-84 14 -87 14 -95 1z"/>
<path d="M7556 6514 c-70 -22 -164 -118 -196 -199 -35 -88 -35 -221 0 -289 14
-27 42 -63 63 -80 36 -29 45 -31 116 -31 69 0 83 3 127 30 58 37 116 110 146
185 24 63 29 195 9 245 -48 119 -153 174 -265 139z m97 -174 c55 -44 58 -137
7 -209 -50 -68 -122 -75 -169 -15 -46 59 -13 187 59 225 45 24 71 24 103 -1z"/>
<path d="M8198 6116 c-30 -119 -97 -269 -162 -360 -66 -92 -181 -197 -274
-250 -61 -35 -81 -52 -78 -65 3 -9 105 -459 227 -1001 122 -542 224 -987 225
-989 6 -7 226 120 339 195 345 229 663 554 908 926 202 307 336 589 455 958
53 166 129 466 120 476 -5 5 -1683 214 -1719 214 -11 0 -22 -27 -41 -104z
m552 -131 c917 -111 1035 -126 1038 -130 3 -2 -16 -76 -41 -164 -138 -483
-361 -922 -653 -1286 -111 -138 -327 -355 -462 -462 -90 -73 -263 -192 -362
-251 l-35 -21 -193 852 -193 852 38 30 c205 162 333 347 428 623 3 9 15 11 37
7 18 -3 197 -25 398 -50z"/>
<path d="M8444 5823 c-69 -225 -182 -383 -369 -519 l-29 -20 33 -80 c18 -43
35 -81 37 -83 6 -6 103 61 159 109 71 61 149 153 202 238 47 75 113 218 131
284 l10 37 -76 25 c-92 31 -91 31 -98 9z"/>
<path d="M8856 5788 c-3 -7 -12 -47 -21 -88 -37 -162 -131 -375 -231 -525 -94
-140 -240 -292 -361 -376 l-41 -29 41 -74 c23 -42 47 -75 53 -76 23 0 173 121
260 212 155 160 256 310 346 509 53 120 116 319 120 381 l3 42 -55 11 c-30 6
-67 15 -83 18 -19 5 -29 3 -31 -5z"/>
<path d="M9290 5653 c-50 -216 -144 -457 -254 -651 -159 -282 -410 -559 -648
-717 -32 -21 -58 -41 -58 -45 0 -8 73 -137 83 -146 16 -16 225 144 361 276
278 270 485 598 616 977 49 139 103 354 92 363 -4 4 -38 13 -77 20 -38 7 -75
15 -81 17 -7 3 -20 -34 -34 -94z"/>
</g>
</svg>
